<?xml version="1.0" encoding="iso-8859-1"?>
<!DOCTYPE svg PUBLIC "-//W3C//DTD SVG 1.1//EN" "http://www.w3.org/Graphics/SVG/1.1/DTD/svg11.dtd">
<svg 
 version="1.1" xmlns="http://www.w3.org/2000/svg" xmlns:xlink="http://www.w3.org/1999/xlink" x="0px" y="0px" width="512px"
	 height="512px" viewBox="0 0 512 512" style="enable-background:new 0 0 512 512;" xml:space="preserve"
><g fill="#757575" id="afcae5a789ccd549f9c6e2a2f80b6cd3"><g fill="#757575"></g><path style="display: inline;" d="M279.227,256h-46.453V0.5h46.453V256z M325.682,10.199v48.74
		C406.786,87.707,465.046,165.159,465.046,256c0,115.266-93.775,209.046-209.046,209.046c-115.27,0-209.046-93.78-209.046-209.046
		c0-90.841,58.26-168.293,139.364-197.061v-48.74C79.097,40.54,0.5,139.059,0.5,256c0,141.111,114.395,255.5,255.5,255.5
		S511.5,397.111,511.5,256C511.5,139.059,432.903,40.54,325.682,10.199z"></path></g></svg>