<?xml version="1.0" encoding="iso-8859-1"?>
<!DOCTYPE svg PUBLIC "-//W3C//DTD SVG 1.1//EN" "http://www.w3.org/Graphics/SVG/1.1/DTD/svg11.dtd">
<svg 
 version="1.1" xmlns="http://www.w3.org/2000/svg" xmlns:xlink="http://www.w3.org/1999/xlink" x="0px" y="0px" width="512px"
	 height="512px" viewBox="0 0 512 512" enable-background="new 0 0 512 512" xml:space="preserve"
><g id="2020da7681f0d538108a21c602008019"><g></g><path display="inline" d="M337.619,288.823c-2.523,0-5.019,0.133-7.485,0.341c-18.181-51.856-67.525-89.055-125.587-89.055
		c-70.516,0-128.187,54.859-132.749,124.22c-0.112,0-0.216-0.017-0.324-0.017c-39.198,0-70.974,31.775-70.974,70.969
		c0,39.198,31.775,70.974,70.974,70.974h266.146c48.996,0,88.714-39.718,88.714-88.714
		C426.333,328.541,386.615,288.823,337.619,288.823z M337.619,440.705H71.474c-25.047,0-45.424-20.377-45.424-45.424
		c0-24.78,19.949-44.986,44.629-45.411l0.133,0.009h0.985h23.924l1.572-23.874c3.701-56.27,50.809-100.346,107.252-100.346
		c45.607,0,86.385,28.919,101.477,71.959l6.545,18.668l19.712-1.663c2-0.167,3.746-0.25,5.339-0.25
		c34.828,0,63.164,28.337,63.164,63.168C400.783,412.369,372.447,440.705,337.619,440.705z M279.421,359.797
		c0,7.057-5.718,12.775-12.775,12.775c-19.283,0-40.454,21.171-40.454,40.454c0,7.057-5.718,12.774-12.774,12.774
		c-7.057,0-12.775-5.718-12.775-12.774c0-33.311,32.694-66.005,66.004-66.005C273.703,347.021,279.421,352.74,279.421,359.797z
		 M441.815,237.37c0,26.635-8.566,51.258-23.063,71.318c-18.709-20.447-45.003-33.846-74.396-35.63
		c-24.406-52.11-76.276-86.647-134.313-88.718c19.732-40.779,61.496-68.911,109.831-68.911
		C387.214,115.43,441.815,170.031,441.815,237.37z M303.549,80.585V63.161c0-9.581,7.585-17.416,16.867-17.416
		c9.281,0,16.875,7.835,16.875,17.416v17.424c0,9.581-7.594,17.416-16.875,17.416C311.134,98.001,303.549,90.166,303.549,80.585z
		 M511.5,237.906c0,9.282-7.843,16.88-17.424,16.88h-17.421c-9.581,0-17.411-7.598-17.411-16.88s7.83-16.863,17.411-16.863h17.421
		C503.657,221.043,511.5,228.624,511.5,237.906z M184.76,125.734c-6.774-6.774-6.953-17.682-0.395-24.253
		c6.575-6.562,17.482-6.383,24.252,0.379l12.331,12.33c6.773,6.774,6.94,17.682,0.382,24.252
		c-6.558,6.563-17.478,6.384-24.252-0.378L184.76,125.734z M454.99,126.508l-12.318,12.317c-6.773,6.774-17.694,6.953-24.252,0.383
		c-6.559-6.563-6.392-17.479,0.383-24.253l12.313-12.317c6.774-6.774,17.695-6.94,24.253-0.383
		C461.938,108.817,461.764,119.733,454.99,126.508z"></path></g></svg>